<?xml version="1.0" standalone="no"?>
<!DOCTYPE svg PUBLIC "-//W3C//DTD SVG 20010904//EN"
 "http://www.w3.org/TR/2001/REC-SVG-20010904/DTD/svg10.dtd">
<svg version="1.0" xmlns="http://www.w3.org/2000/svg"
 width="160.000000pt" height="160.000000pt" viewBox="0 0 160.000000 160.000000"
 preserveAspectRatio="xMidYMid meet">
<metadata>
Created by potrace 1.11, written by Peter Selinger 2001-2013
</metadata>
<g transform="translate(0.000000,160.000000) scale(0.100000,-0.100000)"
fill="#000000" stroke="none">
<path d="M269 1295 c-37 -20 -48 -70 -52 -245 -4 -169 -16 -214 -60 -225 -32
-8 -29 -52 6 -73 43 -26 50 -56 54 -222 5 -184 6 -190 39 -229 22 -27 32 -31
75 -31 48 0 49 1 49 29 0 25 -5 30 -27 33 -49 6 -62 45 -63 198 -2 143 -9 174
-55 234 -22 28 -23 35 -10 40 9 3 27 29 40 58 22 48 25 66 25 186 0 153 11
189 60 199 25 4 30 10 30 34 0 27 -2 29 -42 29 -24 -1 -55 -7 -69 -15z"/>
<path d="M1220 1281 c0 -25 4 -30 28 -33 47 -5 62 -52 62 -199 0 -137 8 -175
52 -230 22 -29 25 -38 13 -42 -8 -4 -25 -28 -38 -54 -22 -43 -25 -62 -26 -183
-2 -157 -16 -203 -63 -208 -24 -3 -28 -8 -28 -33 0 -28 2 -29 44 -29 33 0 52
7 75 25 36 31 39 51 44 250 4 149 17 197 56 210 10 3 21 15 24 26 5 19 -15 49
-33 49 -5 0 -17 15 -27 33 -13 25 -18 65 -21 192 -2 88 -8 173 -14 188 -17 43
-54 67 -104 67 -42 0 -44 -1 -44 -29z"/>
<path d="M564 868 l1 -413 39 0 38 0 0 193 -1 192 72 0 72 -1 100 -167 c55
-92 106 -179 114 -195 12 -23 20 -27 57 -27 24 0 44 2 44 5 0 3 -52 89 -115
191 -63 101 -115 187 -115 189 0 3 20 10 45 16 59 15 117 58 138 101 37 78 23
195 -29 252 -55 58 -101 70 -290 74 l-171 4 1 -414z m348 318 c59 -30 82 -66
83 -126 0 -60 -24 -96 -83 -126 -35 -18 -61 -22 -156 -23 l-114 -2 0 151 -1
151 115 -2 c95 -1 121 -5 156 -23z"/>
</g>
</svg>
